# xmcd
#
# Track frame offsets:
#	150
#	140925
#	143765
#	282815
#
# Disc length: 4428
#
# Revision: 0
# Processed by: cddbd v1.5.1PL0 Copyright (c) Steve Scherf et al.
# Submitted via: Broken Cross Disk Manager 3.49.2055
#
DISCID=3d114a04
DTITLE=Jochen Malmsheimer - Ich bin kein Tag für eine Nacht
DYEAR=2004
DGENRE=comedy
TTITLE0=Ich bin kein Tag für eine Nacht
TTITLE1=Einblick und Ausblick
TTITLE2=Ich bin kein Tag für eine Nacht
TTITLE3=King the Fuckers
EXTD=
EXTT0=
EXTT1=
EXTT2=
EXTT3=
PLAYORDER=
